<mxfile host="app.diagrams.net" modified="2023-06-06T09:32:12.467Z" agent="Mozilla/5.0 (X11; Ubuntu; Linux x86_64; rv:109.0) Gecko/20100101 Firefox/113.0" etag="Hga6X4RslSzAriM9MV8W" version="21.3.7" type="github">
  <diagram name="Page-1" id="8VawA16yyXWH-Rq_11g9">
    <mxGraphModel dx="3585" dy="1805" grid="1" gridSize="10" guides="1" tooltips="1" connect="1" arrows="1" fold="1" page="1" pageScale="1" pageWidth="850" pageHeight="1100" math="0" shadow="0">
      <root>
        <mxCell id="0" />
        <mxCell id="1" parent="0" />
        <mxCell id="OonYzX7UAx6MXSqwizct-8" value="Users" style="swimlane;whiteSpace=wrap;html=1;" parent="1" vertex="1">
          <mxGeometry x="41" y="40" width="200" height="200" as="geometry" />
        </mxCell>
        <mxCell id="OonYzX7UAx6MXSqwizct-13" value="&lt;div align=&quot;left&quot;&gt;- id (@)&lt;/div&gt;&lt;div align=&quot;left&quot;&gt;- Pseudo/Username&lt;/div&gt;&lt;div align=&quot;left&quot;&gt;- Email&lt;/div&gt;&lt;div align=&quot;left&quot;&gt;- Location&lt;/div&gt;&lt;div align=&quot;left&quot;&gt;- Bio&lt;/div&gt;&lt;div align=&quot;left&quot;&gt;- WebSite&lt;/div&gt;&lt;div align=&quot;left&quot;&gt;- Birth Date&lt;br&gt;&lt;/div&gt;" style="text;html=1;align=left;verticalAlign=middle;resizable=0;points=[];autosize=1;strokeColor=none;fillColor=none;" parent="OonYzX7UAx6MXSqwizct-8" vertex="1">
          <mxGeometry x="17" y="40" width="130" height="110" as="geometry" />
        </mxCell>
        <mxCell id="OonYzX7UAx6MXSqwizct-9" value="Tweets" style="swimlane;whiteSpace=wrap;html=1;" parent="1" vertex="1">
          <mxGeometry x="39" y="420" width="200" height="140" as="geometry" />
        </mxCell>
        <mxCell id="OonYzX7UAx6MXSqwizct-14" value="&lt;div align=&quot;left&quot;&gt;- Id&lt;br&gt;&lt;/div&gt;&lt;div align=&quot;left&quot;&gt;- Content&lt;br&gt;&lt;/div&gt;&lt;div align=&quot;left&quot;&gt;- Creation Date&lt;/div&gt;&lt;div align=&quot;left&quot;&gt;&lt;br&gt;&lt;/div&gt;" style="text;html=1;align=center;verticalAlign=middle;resizable=0;points=[];autosize=1;strokeColor=none;fillColor=none;" parent="OonYzX7UAx6MXSqwizct-9" vertex="1">
          <mxGeometry x="31" y="50" width="100" height="70" as="geometry" />
        </mxCell>
        <mxCell id="ddO-TAM94aGAcROhZCYV-11" value="" style="edgeStyle=orthogonalEdgeStyle;rounded=0;orthogonalLoop=1;jettySize=auto;html=1;entryX=0.25;entryY=0;entryDx=0;entryDy=0;" edge="1" parent="1" source="OonYzX7UAx6MXSqwizct-10" target="OonYzX7UAx6MXSqwizct-9">
          <mxGeometry relative="1" as="geometry" />
        </mxCell>
        <mxCell id="ddO-TAM94aGAcROhZCYV-35" value="1,1" style="edgeLabel;html=1;align=center;verticalAlign=middle;resizable=0;points=[];" vertex="1" connectable="0" parent="ddO-TAM94aGAcROhZCYV-11">
          <mxGeometry x="-0.2222" y="4" relative="1" as="geometry">
            <mxPoint as="offset" />
          </mxGeometry>
        </mxCell>
        <mxCell id="ddO-TAM94aGAcROhZCYV-15" style="edgeStyle=orthogonalEdgeStyle;rounded=0;orthogonalLoop=1;jettySize=auto;html=1;exitX=0.5;exitY=0;exitDx=0;exitDy=0;entryX=0.25;entryY=1;entryDx=0;entryDy=0;" edge="1" parent="1" source="OonYzX7UAx6MXSqwizct-10" target="OonYzX7UAx6MXSqwizct-8">
          <mxGeometry relative="1" as="geometry" />
        </mxCell>
        <mxCell id="ddO-TAM94aGAcROhZCYV-32" value="0,n" style="edgeLabel;html=1;align=center;verticalAlign=middle;resizable=0;points=[];" vertex="1" connectable="0" parent="ddO-TAM94aGAcROhZCYV-15">
          <mxGeometry x="-0.2807" relative="1" as="geometry">
            <mxPoint as="offset" />
          </mxGeometry>
        </mxCell>
        <mxCell id="OonYzX7UAx6MXSqwizct-10" value="Create" style="swimlane;whiteSpace=wrap;html=1;rounded=1;" parent="1" vertex="1">
          <mxGeometry x="90" y="290" width="130" height="70" as="geometry" />
        </mxCell>
        <mxCell id="ddO-TAM94aGAcROhZCYV-10" style="edgeStyle=orthogonalEdgeStyle;rounded=0;orthogonalLoop=1;jettySize=auto;html=1;exitX=0.5;exitY=1;exitDx=0;exitDy=0;entryX=1;entryY=0.25;entryDx=0;entryDy=0;" edge="1" parent="1" source="ddO-TAM94aGAcROhZCYV-8" target="OonYzX7UAx6MXSqwizct-9">
          <mxGeometry relative="1" as="geometry" />
        </mxCell>
        <mxCell id="ddO-TAM94aGAcROhZCYV-37" value="0,n" style="edgeLabel;html=1;align=center;verticalAlign=middle;resizable=0;points=[];" vertex="1" connectable="0" parent="ddO-TAM94aGAcROhZCYV-10">
          <mxGeometry x="-0.2515" y="2" relative="1" as="geometry">
            <mxPoint as="offset" />
          </mxGeometry>
        </mxCell>
        <mxCell id="ddO-TAM94aGAcROhZCYV-13" style="edgeStyle=orthogonalEdgeStyle;rounded=0;orthogonalLoop=1;jettySize=auto;html=1;exitX=0.5;exitY=0;exitDx=0;exitDy=0;entryX=1;entryY=0.75;entryDx=0;entryDy=0;" edge="1" parent="1" source="ddO-TAM94aGAcROhZCYV-8" target="OonYzX7UAx6MXSqwizct-8">
          <mxGeometry relative="1" as="geometry" />
        </mxCell>
        <mxCell id="ddO-TAM94aGAcROhZCYV-36" value="0,n" style="edgeLabel;html=1;align=center;verticalAlign=middle;resizable=0;points=[];" vertex="1" connectable="0" parent="ddO-TAM94aGAcROhZCYV-13">
          <mxGeometry x="-0.2529" y="-4" relative="1" as="geometry">
            <mxPoint as="offset" />
          </mxGeometry>
        </mxCell>
        <mxCell id="ddO-TAM94aGAcROhZCYV-8" value="React" style="swimlane;whiteSpace=wrap;html=1;rounded=1;" vertex="1" parent="1">
          <mxGeometry x="250" y="290" width="130" height="70" as="geometry" />
        </mxCell>
        <mxCell id="ddO-TAM94aGAcROhZCYV-18" style="edgeStyle=orthogonalEdgeStyle;rounded=0;orthogonalLoop=1;jettySize=auto;html=1;entryX=1;entryY=0.25;entryDx=0;entryDy=0;exitX=0.5;exitY=0;exitDx=0;exitDy=0;" edge="1" parent="1" source="ddO-TAM94aGAcROhZCYV-17" target="OonYzX7UAx6MXSqwizct-8">
          <mxGeometry relative="1" as="geometry" />
        </mxCell>
        <mxCell id="ddO-TAM94aGAcROhZCYV-30" value="0,n" style="edgeLabel;html=1;align=center;verticalAlign=middle;resizable=0;points=[];" vertex="1" connectable="0" parent="ddO-TAM94aGAcROhZCYV-18">
          <mxGeometry x="-0.2113" y="1" relative="1" as="geometry">
            <mxPoint as="offset" />
          </mxGeometry>
        </mxCell>
        <mxCell id="ddO-TAM94aGAcROhZCYV-19" style="edgeStyle=orthogonalEdgeStyle;rounded=0;orthogonalLoop=1;jettySize=auto;html=1;exitX=0.5;exitY=1;exitDx=0;exitDy=0;" edge="1" parent="1" source="ddO-TAM94aGAcROhZCYV-17">
          <mxGeometry relative="1" as="geometry">
            <mxPoint x="240" y="100" as="targetPoint" />
          </mxGeometry>
        </mxCell>
        <mxCell id="ddO-TAM94aGAcROhZCYV-31" value="0,n" style="edgeLabel;html=1;align=center;verticalAlign=middle;resizable=0;points=[];" vertex="1" connectable="0" parent="ddO-TAM94aGAcROhZCYV-19">
          <mxGeometry x="-0.1724" y="4" relative="1" as="geometry">
            <mxPoint as="offset" />
          </mxGeometry>
        </mxCell>
        <mxCell id="ddO-TAM94aGAcROhZCYV-17" value="Follow" style="swimlane;whiteSpace=wrap;html=1;rounded=1;" vertex="1" parent="1">
          <mxGeometry x="400" y="70" width="130" height="70" as="geometry" />
        </mxCell>
        <mxCell id="ddO-TAM94aGAcROhZCYV-24" style="edgeStyle=orthogonalEdgeStyle;rounded=0;orthogonalLoop=1;jettySize=auto;html=1;exitX=0;exitY=0.5;exitDx=0;exitDy=0;entryX=0.25;entryY=1;entryDx=0;entryDy=0;" edge="1" parent="1" source="ddO-TAM94aGAcROhZCYV-21" target="OonYzX7UAx6MXSqwizct-9">
          <mxGeometry relative="1" as="geometry" />
        </mxCell>
        <mxCell id="ddO-TAM94aGAcROhZCYV-28" value="0,n" style="edgeLabel;html=1;align=center;verticalAlign=middle;resizable=0;points=[];" vertex="1" connectable="0" parent="ddO-TAM94aGAcROhZCYV-24">
          <mxGeometry x="0.129" y="2" relative="1" as="geometry">
            <mxPoint as="offset" />
          </mxGeometry>
        </mxCell>
        <mxCell id="ddO-TAM94aGAcROhZCYV-27" style="edgeStyle=orthogonalEdgeStyle;rounded=0;orthogonalLoop=1;jettySize=auto;html=1;exitX=1;exitY=0.5;exitDx=0;exitDy=0;entryX=0;entryY=0.5;entryDx=0;entryDy=0;" edge="1" parent="1" source="ddO-TAM94aGAcROhZCYV-21" target="ddO-TAM94aGAcROhZCYV-25">
          <mxGeometry relative="1" as="geometry" />
        </mxCell>
        <mxCell id="ddO-TAM94aGAcROhZCYV-38" value="0,n" style="edgeLabel;html=1;align=center;verticalAlign=middle;resizable=0;points=[];" vertex="1" connectable="0" parent="ddO-TAM94aGAcROhZCYV-27">
          <mxGeometry x="0.183" y="-3" relative="1" as="geometry">
            <mxPoint as="offset" />
          </mxGeometry>
        </mxCell>
        <mxCell id="ddO-TAM94aGAcROhZCYV-21" value="Group relation" style="swimlane;whiteSpace=wrap;html=1;rounded=1;" vertex="1" parent="1">
          <mxGeometry x="160" y="640" width="130" height="70" as="geometry" />
        </mxCell>
        <mxCell id="ddO-TAM94aGAcROhZCYV-25" value="Hashtags (catÃ©gories)" style="swimlane;whiteSpace=wrap;html=1;" vertex="1" parent="1">
          <mxGeometry x="440" y="520" width="200" height="140" as="geometry" />
        </mxCell>
        <mxCell id="ddO-TAM94aGAcROhZCYV-26" value="- Name" style="text;html=1;align=center;verticalAlign=middle;resizable=0;points=[];autosize=1;strokeColor=none;fillColor=none;" vertex="1" parent="ddO-TAM94aGAcROhZCYV-25">
          <mxGeometry x="51" y="70" width="60" height="30" as="geometry" />
        </mxCell>
        <mxCell id="ddO-TAM94aGAcROhZCYV-29" value="&lt;div align=&quot;left&quot;&gt;- Creation Date&lt;/div&gt;" style="text;html=1;align=left;verticalAlign=middle;resizable=0;points=[];autosize=1;strokeColor=none;fillColor=none;" vertex="1" parent="1">
          <mxGeometry x="266" y="318" width="100" height="30" as="geometry" />
        </mxCell>
        <mxCell id="ddO-TAM94aGAcROhZCYV-39" value="Users_Users" style="swimlane;whiteSpace=wrap;html=1;" vertex="1" parent="1">
          <mxGeometry x="990" y="110" width="200" height="200" as="geometry" />
        </mxCell>
        <mxCell id="ddO-TAM94aGAcROhZCYV-43" value="&lt;font style=&quot;font-size: 30px;&quot;&gt;MCD Twitter&lt;/font&gt;" style="text;html=1;strokeColor=none;fillColor=none;align=center;verticalAlign=middle;whiteSpace=wrap;rounded=0;" vertex="1" parent="1">
          <mxGeometry x="580" y="45" width="170" height="30" as="geometry" />
        </mxCell>
        <mxCell id="ddO-TAM94aGAcROhZCYV-44" value="&lt;font style=&quot;font-size: 28px;&quot;&gt;MLD Twitter&lt;/font&gt;" style="text;html=1;strokeColor=none;fillColor=none;align=center;verticalAlign=middle;whiteSpace=wrap;rounded=0;" vertex="1" parent="1">
          <mxGeometry x="1275" y="10" width="175" height="100" as="geometry" />
        </mxCell>
        <mxCell id="ddO-TAM94aGAcROhZCYV-45" value="Users" style="swimlane;whiteSpace=wrap;html=1;" vertex="1" parent="1">
          <mxGeometry x="1290" y="225" width="200" height="200" as="geometry" />
        </mxCell>
        <mxCell id="ddO-TAM94aGAcROhZCYV-46" value="&lt;div align=&quot;left&quot;&gt;&lt;b&gt;- id (@)&lt;/b&gt;&lt;/div&gt;&lt;div align=&quot;left&quot;&gt;- Username&lt;/div&gt;&lt;div align=&quot;left&quot;&gt;- Email&lt;/div&gt;&lt;div align=&quot;left&quot;&gt;- Location&lt;/div&gt;&lt;div align=&quot;left&quot;&gt;- Bio&lt;/div&gt;&lt;div align=&quot;left&quot;&gt;- WebSite&lt;/div&gt;&lt;div align=&quot;left&quot;&gt;- Birth Date&lt;br&gt;&lt;/div&gt;" style="text;html=1;align=left;verticalAlign=middle;resizable=0;points=[];autosize=1;strokeColor=none;fillColor=none;" vertex="1" parent="ddO-TAM94aGAcROhZCYV-45">
          <mxGeometry x="17" y="41" width="90" height="110" as="geometry" />
        </mxCell>
        <mxCell id="ddO-TAM94aGAcROhZCYV-49" style="edgeStyle=orthogonalEdgeStyle;rounded=0;orthogonalLoop=1;jettySize=auto;html=1;entryX=0.004;entryY=0.116;entryDx=0;entryDy=0;entryPerimeter=0;" edge="1" parent="1" source="ddO-TAM94aGAcROhZCYV-47" target="ddO-TAM94aGAcROhZCYV-46">
          <mxGeometry relative="1" as="geometry">
            <Array as="points">
              <mxPoint x="1220" y="183" />
              <mxPoint x="1220" y="278" />
            </Array>
          </mxGeometry>
        </mxCell>
        <mxCell id="ddO-TAM94aGAcROhZCYV-47" value="&lt;b&gt;User1_Id&lt;/b&gt;" style="text;html=1;align=center;verticalAlign=middle;resizable=0;points=[];autosize=1;strokeColor=none;fillColor=none;" vertex="1" parent="1">
          <mxGeometry x="1005" y="168" width="70" height="30" as="geometry" />
        </mxCell>
        <mxCell id="ddO-TAM94aGAcROhZCYV-50" style="edgeStyle=orthogonalEdgeStyle;rounded=0;orthogonalLoop=1;jettySize=auto;html=1;entryX=0.004;entryY=0.124;entryDx=0;entryDy=0;entryPerimeter=0;" edge="1" parent="1" target="ddO-TAM94aGAcROhZCYV-46">
          <mxGeometry relative="1" as="geometry">
            <mxPoint x="1000" y="240" as="sourcePoint" />
            <Array as="points">
              <mxPoint x="930" y="240" />
              <mxPoint x="930" y="340" />
              <mxPoint x="1220" y="340" />
              <mxPoint x="1220" y="279" />
            </Array>
          </mxGeometry>
        </mxCell>
        <mxCell id="ddO-TAM94aGAcROhZCYV-48" value="&lt;b&gt;User2_id&lt;/b&gt;" style="text;html=1;align=center;verticalAlign=middle;resizable=0;points=[];autosize=1;strokeColor=none;fillColor=none;" vertex="1" parent="1">
          <mxGeometry x="1005" y="228" width="70" height="30" as="geometry" />
        </mxCell>
        <mxCell id="ddO-TAM94aGAcROhZCYV-51" value="Tweets_Users" style="swimlane;whiteSpace=wrap;html=1;" vertex="1" parent="1">
          <mxGeometry x="1290" y="490" width="200" height="140" as="geometry" />
        </mxCell>
        <mxCell id="ddO-TAM94aGAcROhZCYV-52" value="&lt;div align=&quot;left&quot;&gt;&lt;b&gt;- user_Id&lt;/b&gt;&lt;br&gt;&lt;/div&gt;&lt;div align=&quot;left&quot;&gt;&lt;b&gt;- Tweet_Id&lt;/b&gt;&lt;br&gt;&lt;/div&gt;&lt;div align=&quot;left&quot;&gt;- Creation Date&lt;/div&gt;&lt;div align=&quot;left&quot;&gt;&lt;br&gt;&lt;/div&gt;" style="text;html=1;align=center;verticalAlign=middle;resizable=0;points=[];autosize=1;strokeColor=none;fillColor=none;" vertex="1" parent="ddO-TAM94aGAcROhZCYV-51">
          <mxGeometry x="31" y="50" width="100" height="70" as="geometry" />
        </mxCell>
        <mxCell id="ddO-TAM94aGAcROhZCYV-54" value="Tweets" style="swimlane;whiteSpace=wrap;html=1;" vertex="1" parent="1">
          <mxGeometry x="1290" y="670" width="200" height="140" as="geometry" />
        </mxCell>
        <mxCell id="ddO-TAM94aGAcROhZCYV-58" style="edgeStyle=orthogonalEdgeStyle;rounded=0;orthogonalLoop=1;jettySize=auto;html=1;" edge="1" parent="ddO-TAM94aGAcROhZCYV-54" source="ddO-TAM94aGAcROhZCYV-55">
          <mxGeometry relative="1" as="geometry">
            <mxPoint x="110" y="-390" as="targetPoint" />
            <Array as="points">
              <mxPoint x="330" y="110" />
              <mxPoint x="330" y="-390" />
              <mxPoint x="110" y="-390" />
            </Array>
          </mxGeometry>
        </mxCell>
        <mxCell id="ddO-TAM94aGAcROhZCYV-55" value="&lt;div align=&quot;left&quot;&gt;&lt;b&gt;- Id&lt;/b&gt;&lt;br&gt;&lt;/div&gt;&lt;div align=&quot;left&quot;&gt;- Content&lt;br&gt;&lt;/div&gt;&lt;div align=&quot;left&quot;&gt;- Creation Date&lt;/div&gt;&lt;div align=&quot;left&quot;&gt;&lt;b&gt;- User_id&lt;/b&gt;&lt;br&gt;&lt;/div&gt;" style="text;html=1;align=center;verticalAlign=middle;resizable=0;points=[];autosize=1;strokeColor=none;fillColor=none;" vertex="1" parent="ddO-TAM94aGAcROhZCYV-54">
          <mxGeometry x="31" y="50" width="100" height="70" as="geometry" />
        </mxCell>
        <mxCell id="ddO-TAM94aGAcROhZCYV-56" style="edgeStyle=orthogonalEdgeStyle;rounded=0;orthogonalLoop=1;jettySize=auto;html=1;entryX=1.019;entryY=0.076;entryDx=0;entryDy=0;entryPerimeter=0;exitX=1.016;exitY=0.176;exitDx=0;exitDy=0;exitPerimeter=0;" edge="1" parent="1" source="ddO-TAM94aGAcROhZCYV-52" target="ddO-TAM94aGAcROhZCYV-46">
          <mxGeometry relative="1" as="geometry">
            <Array as="points">
              <mxPoint x="1430" y="552" />
              <mxPoint x="1540" y="552" />
              <mxPoint x="1540" y="274" />
            </Array>
          </mxGeometry>
        </mxCell>
        <mxCell id="ddO-TAM94aGAcROhZCYV-57" style="edgeStyle=orthogonalEdgeStyle;rounded=0;orthogonalLoop=1;jettySize=auto;html=1;entryX=-0.018;entryY=0.21;entryDx=0;entryDy=0;entryPerimeter=0;exitX=-0.008;exitY=0.358;exitDx=0;exitDy=0;exitPerimeter=0;" edge="1" parent="1" source="ddO-TAM94aGAcROhZCYV-52" target="ddO-TAM94aGAcROhZCYV-55">
          <mxGeometry relative="1" as="geometry">
            <mxPoint x="1319" y="570" as="sourcePoint" />
            <Array as="points">
              <mxPoint x="1220" y="565" />
              <mxPoint x="1220" y="735" />
            </Array>
          </mxGeometry>
        </mxCell>
        <mxCell id="ddO-TAM94aGAcROhZCYV-59" value="Hashtags (catÃ©gories)" style="swimlane;whiteSpace=wrap;html=1;" vertex="1" parent="1">
          <mxGeometry x="970" y="880" width="200" height="140" as="geometry" />
        </mxCell>
        <mxCell id="ddO-TAM94aGAcROhZCYV-60" value="&lt;b&gt;- Name&lt;/b&gt;" style="text;html=1;align=center;verticalAlign=middle;resizable=0;points=[];autosize=1;strokeColor=none;fillColor=none;" vertex="1" parent="ddO-TAM94aGAcROhZCYV-59">
          <mxGeometry x="51" y="70" width="60" height="30" as="geometry" />
        </mxCell>
        <mxCell id="ddO-TAM94aGAcROhZCYV-61" value="Hashtags_tweets" style="swimlane;whiteSpace=wrap;html=1;startSize=23;" vertex="1" parent="1">
          <mxGeometry x="970" y="690" width="200" height="140" as="geometry" />
        </mxCell>
        <mxCell id="ddO-TAM94aGAcROhZCYV-62" value="&lt;div align=&quot;left&quot;&gt;&lt;b&gt;- hashtag_name&lt;/b&gt;&lt;/div&gt;" style="text;html=1;align=left;verticalAlign=middle;resizable=0;points=[];autosize=1;strokeColor=none;fillColor=none;" vertex="1" parent="ddO-TAM94aGAcROhZCYV-61">
          <mxGeometry x="26" y="40" width="110" height="30" as="geometry" />
        </mxCell>
        <mxCell id="ddO-TAM94aGAcROhZCYV-63" value="&lt;div align=&quot;left&quot;&gt;&lt;b&gt;- tweet_id&lt;/b&gt;&lt;/div&gt;" style="text;html=1;align=left;verticalAlign=middle;resizable=0;points=[];autosize=1;strokeColor=none;fillColor=none;" vertex="1" parent="ddO-TAM94aGAcROhZCYV-61">
          <mxGeometry x="28" y="80" width="80" height="30" as="geometry" />
        </mxCell>
        <mxCell id="ddO-TAM94aGAcROhZCYV-64" style="edgeStyle=orthogonalEdgeStyle;rounded=0;orthogonalLoop=1;jettySize=auto;html=1;entryX=-0.004;entryY=0.483;entryDx=0;entryDy=0;entryPerimeter=0;" edge="1" parent="1" source="ddO-TAM94aGAcROhZCYV-62" target="ddO-TAM94aGAcROhZCYV-60">
          <mxGeometry relative="1" as="geometry">
            <Array as="points">
              <mxPoint x="920" y="745" />
              <mxPoint x="920" y="965" />
            </Array>
          </mxGeometry>
        </mxCell>
        <mxCell id="ddO-TAM94aGAcROhZCYV-65" style="edgeStyle=orthogonalEdgeStyle;rounded=0;orthogonalLoop=1;jettySize=auto;html=1;entryX=-0.015;entryY=0.207;entryDx=0;entryDy=0;entryPerimeter=0;" edge="1" parent="1" source="ddO-TAM94aGAcROhZCYV-63" target="ddO-TAM94aGAcROhZCYV-55">
          <mxGeometry relative="1" as="geometry">
            <Array as="points">
              <mxPoint x="1220" y="785" />
              <mxPoint x="1220" y="735" />
            </Array>
          </mxGeometry>
        </mxCell>
      </root>
    </mxGraphModel>
  </diagram>
</mxfile>
